<svg xmlns="http://www.w3.org/2000/svg" viewBox="0 0 2664.79 580.22">
  <defs>
    <style>
      .cls-1 {
        fill: #000;
      }
      .cls-2 {
        fill: #ffe400;
      }
    </style>
  </defs>
  <path class="cls-1" d="M156,245.59q20.1,6.75,36.87,13.73a126.91,126.91,0,0,1,29.25,16.76,69.84,69.84,0,0,1,19.5,23.45q7,13.73,7,32.6v.61q0,46.36-30.78,72.52t-86.23,26.23a202.16,202.16,0,0,1-68.27-12A235.1,235.1,0,0,1,.61,385.38L0,384.77l.61-.61,41.44-65.43.61.6A124.11,124.11,0,0,0,84.1,348.89,122.34,122.34,0,0,0,133.47,359q35.94,0,35.95-23.11,0-11-11.58-16.42a207.92,207.92,0,0,0-27.42-10.34,24,24,0,0,0-5.79-1.51,22.25,22.25,0,0,1-5.79-1.53q-18.27-4.83-36.56-10.63a123.1,123.1,0,0,1-32.92-15.81,82.71,82.71,0,0,1-24.07-25.51q-9.46-15.51-9.44-39.85v-1.19a93.63,93.63,0,0,1,7.92-38.91,87.55,87.55,0,0,1,22.55-30.41Q60.93,131,81.67,124t45.7-7a207.28,207.28,0,0,1,59.12,8.83A204.27,204.27,0,0,1,242,151.76V153l-37.18,67.63-.61-.61q-14-14-34.74-22.23a117.52,117.52,0,0,0-43.87-8.23,91,91,0,0,0-9.76.61,27.89,27.89,0,0,0-10.06,3,23.55,23.55,0,0,0-7.61,6.4c-2,2.64-3,6.4-3,11.26,0,3.68,1.61,7,4.87,10.08a54.94,54.94,0,0,0,12.5,8.51,168.35,168.35,0,0,0,17,7.64c6.31,2.43,12.49,4.65,18.59,6.69a14.7,14.7,0,0,1,4,.61C153.47,244.8,154.8,245.2,156,245.59ZM505.23,121.88v.61q-12.81,36.57-23.77,67.66t-20.73,58.51q-12.8,36.57-23.15,65.49-8.13,22.75-15.14,41.12l-62-190.81v-.61H273.29L380.37,437.62a74.15,74.15,0,0,1-10.75,10.63,73,73,0,0,1-19.19,10.95,88.08,88.08,0,0,1-22.86,5.18q-12.49,1.23-28.33,1.22H298v82.88h1.22q51.79,0,86.23-17.66t61.86-57.29q27.42-38.4,51.5-99.65t54.54-146.56q8.53-23.16,18.29-49.67t20.1-54.55l.61-1.22Zm111.52,0h82.89V426.6H616.75Zm281.56,35.35q15.24,18.89,22,47.54t6.69,70.7V426.6H844.09V275.07c0-11.39-.32-22.31-.93-32.67a76,76,0,0,0-6.4-27.5,40,40,0,0,0-17.68-18.64q-12.2-6.7-34.73-6.72a87.51,87.51,0,0,0-39.62,9.12v.61l-.61-.61L714.26,146l.6-.6Q746.56,117,794.09,117,867.22,117,898.31,157.23ZM1112.82,117a150.68,150.68,0,0,1,60.94,12.48,159.3,159.3,0,0,1,83.81,83.81,152.2,152.2,0,0,1,12.48,61.55A157.48,157.48,0,0,1,1266.4,309l-.61,1.21H1111L1072,248H1187.8q-8.57-25.59-28.35-42t-46.63-16.45a73.93,73.93,0,0,0-31.07,6.67,80.92,80.92,0,0,0-25.3,17.92,81.79,81.79,0,0,0-16.77,26.73,91.59,91.59,0,0,0-6.08,33.69,83.3,83.3,0,0,0,5.48,28.84,88.24,88.24,0,0,0,15.86,27,91.05,91.05,0,0,0,25,20.36,66.21,66.21,0,0,0,32.9,8.2,95,95,0,0,0,30.16-4.58q13.73-4.56,25.91-20.41l.61-.61,1.22.61,70.7,31.12-1.22,1.24a152.43,152.43,0,0,1-55.76,47.94,155.87,155.87,0,0,1-71.62,17.21A157.83,157.83,0,0,1,1051,419.3a156,156,0,0,1-50.28-33.52,161,161,0,0,1-33.82-50,156.19,156.19,0,0,1,0-122.5A158.51,158.51,0,0,1,1051,129.5,154.36,154.36,0,0,1,1112.82,117ZM1381.6,0V426.6h-81.07L1301.14,0Zm217,349.82,29.24,53v.61q-31.69,28-78.6,28.05-74.37,0-105.44-40.24-28.68-35.94-28.64-114.56V121.88h83.47V276.69q0,16.46.93,31.67t6.71,26.84a43.77,43.77,0,0,0,18,18.58q12.18,7,34.71,7a66.81,66.81,0,0,0,20.13-3,93.26,93.26,0,0,0,18.29-7.93Zm128-227.94V428.42H1643V121.88ZM1881.93,322.4a31.81,31.81,0,0,0,10,23.77A33.32,33.32,0,0,0,1916,355.9h59.12v70.7H1916a114.59,114.59,0,0,1-81.35-33.21A117.93,117.93,0,0,1,1810,357.14a108.86,108.86,0,0,1-9.15-44.5V221.22H1757V153.59h43.89V43.28h81.06Zm93.23-168.81v67.63h-45.08l-37.81-67.63ZM2086.68,0h-81V71.31h81ZM2055.9,335.2a155,155,0,0,1,0-121.89A161.45,161.45,0,0,1,2086.68,167V121.88h-81V426.6h81V381.45A161,161,0,0,1,2055.9,335.2Zm247.44-179.68c3.1,2.65,6.55,4.9,9.45,7.8a161.18,161.18,0,0,1,33.81,50,154.71,154.71,0,0,1,0,121.89,160.86,160.86,0,0,1-33.81,50c-2.9,2.9-6.35,5.14-9.45,7.8V426.6h82.88V121.88h-82.88Zm303.49,49.25q-6.7-28.64-21.92-47.54Q2553.83,117,2480.69,117q-47.55,0-79.24,28.4l-.61.6,29.88,52.64.61.61v-.61a87.46,87.46,0,0,1,39.6-9.12q22.53,0,34.75,6.72a40.12,40.12,0,0,1,17.66,18.64q5.51,11.9,6.39,27.5c.64,10.36.93,21.28.93,32.67V426.6h82.89V275.47Q2613.55,233.4,2606.83,204.77Z"/>
  <path class="cls-1" d="M2621.31,19.77a43.48,43.48,0,1,1-30.74,12.73,43.3,43.3,0,0,1,30.74-12.73Zm26.56,16.92a37.55,37.55,0,1,0,11,26.56,37.44,37.44,0,0,0-11-26.56ZM2601.62,86h10V71.45h7.88L2629.29,86H2641l-11.13-16.27a16.12,16.12,0,0,0,5.11-3,13.05,13.05,0,0,0,3.41-4.68,16,16,0,0,0,1.25-6.46V55.5a16.58,16.58,0,0,0-1-5.87,12.73,12.73,0,0,0-2.91-4.55,14.84,14.84,0,0,0-5.59-3.44,23.18,23.18,0,0,0-7.69-1.18h-20.83V86Zm10-23.43V49.51h10a10.86,10.86,0,0,1,4.21.74,5.75,5.75,0,0,1,2.72,2.17,6.54,6.54,0,0,1,.95,3.6v.13a6.11,6.11,0,0,1-.91,3.37,6,6,0,0,1-2.6,2.26,10.22,10.22,0,0,1-4.17.82Z"/>
  <path class="cls-2" d="M2345.63,274.91c0-79.32-64.53-143.85-143.85-143.85s-143.85,64.53-143.85,143.85c0,.3,0,.59,0,.89s0,.59,0,.89c0,79.32,64.53,143.85,143.85,143.85S2345.63,356,2345.63,276.69c0-.3,0-.6,0-.89S2345.63,275.21,2345.63,274.91ZM2229.2,310.62l-64.52,37.25V200.66l64.52,37.24,63,36.36Z"/>
  <path class="cls-1" d="M555.68,480.38H527.29l-15.86,75H500.2l15.85-75H487.66l2-9.47h68.14Zm-5.92,13.84h9.46l-3,13.13h.23c4.73-8.4,12-14.55,22.24-14.55a17.55,17.55,0,0,1,3.55,0l-2.36,10.76a26.63,26.63,0,0,0-3-.11,20.51,20.51,0,0,0-6,.59c-5.56,1.42-9.82,5.08-13,9.94-2.72,3.9-4.14,9.7-5.08,14.31L547,555.38H537Zm33.48,18.45c2-13.6,13.48-19.87,26.5-19.87,11.83,0,22.35,3.19,22.35,15.61,0,3.44-1.18,7.81-1.89,11.13l-3.9,16.68c-.48,2.48-1.66,5.91-1.66,8.75s1.3,3.79,3,3.79a10.67,10.67,0,0,0,3.19-.83l-1.54,7.45a15.51,15.51,0,0,1-6.15,1.42c-5.56,0-8.51-3.31-7.92-8.64l-.24-.23c-4.26,5.68-10.17,8.87-20.47,8.87s-18.69-4.73-18.69-17.27c0-17.75,17.39-18.93,30.88-20.11,10.65-.95,15.38-1.54,15.38-9.7,0-6.63-7-8.05-12.3-8.05-7.69,0-15.27,3.08-16.45,11Zm13.6,35.26c7.81,0,13.61-2.61,17.15-8,3.32-4.61,3.91-10,5.33-15.73h-.24c-4.38,2.6-12.3,3.19-19.64,4.14s-13.6,3.31-13.6,11.12C585.84,545.09,591.16,547.93,596.84,547.93Zm53.82-53.71h9.7l-1.89,9.23h.24a27.1,27.1,0,0,1,21.77-10.65c11.47,0,17,5,17,15.73a64.77,64.77,0,0,1-1.77,12l-7.46,34.9h-10L686,519.65a68.09,68.09,0,0,0,1.42-9.46c0-5.8-4.74-8.52-10.65-8.52-5.56,0-11.36,3.08-15.14,7.1-3.55,3.08-5.45,7.93-6.75,12.78l-7.1,33.83H637.77Zm95.47,18c.47-7-5.68-10.53-12.66-10.53-6.15,0-13,1.66-13,7.81,0,5.68,8,7.93,16.09,11.24s16.2,7.57,16.2,17.15c0,13.61-13.13,18.93-25,18.93-14,0-24.84-5.09-24.72-20.7h10c-.47,9.11,7.22,11.83,15.62,11.83,6.51,0,14-2.37,14-9.35,0-5.91-8.05-8.28-16.09-11.59s-16.21-7.34-16.21-16.56c0-11.36,11.36-17.63,22.72-17.63s23.07,5.09,23.07,19.4Zm29-9.11H764.7l1.77-8.87h10.41c3.2-12.42,3.67-24.25,19.76-24.25a33.26,33.26,0,0,1,8.4.94l-1.66,8.52a21.87,21.87,0,0,0-4.73-.59c-10,0-9.46,7.93-11.83,15.38h11.71l-1.65,8.87H785.05l-11.24,52.29H763.75Zm57.14-10.29c16.32,0,25.43,9,25.43,25.32,0,20-12.42,38.68-33.83,38.68-16.09,0-25.79-10.77-25.79-25.55C798.06,511.25,810.83,492.8,832.25,492.8Zm-7.34,55.13c14.67,0,22.71-16.92,22.71-29,0-9.58-5.08-17.27-16.08-17.27-15.38,0-23.43,16.8-23.43,29.46C808.11,541.18,813.91,547.93,824.91,547.93Zm51.22-53.71h9.46l-3,13.13h.23c4.73-8.4,12-14.55,22.24-14.55a17.55,17.55,0,0,1,3.55,0l-2.36,10.76a26.63,26.63,0,0,0-3-.11,20.51,20.51,0,0,0-6,.59c-5.56,1.42-9.82,5.08-13,9.94-2.72,3.9-4.14,9.7-5.08,14.31l-5.8,27.09H863.35Zm40.34,0h9.34l-2.24,9.11.23.23c5.21-6.38,12.9-10.76,21.3-10.76,7.69,0,13.6,3.08,15.38,11a26.71,26.71,0,0,1,20.94-11c8.63,0,17,3.78,17,13.72a61.18,61.18,0,0,1-1.77,12.19L989,555.38H978.93l8.52-38.8a33.43,33.43,0,0,0,.95-6.63c0-4.73-4-8.28-9.35-8.28-5.68,0-11.95,4-15.38,8.4-3.31,3.55-4.61,8.52-5.68,13.72l-6.74,31.59H941.19l7.34-34.9a79.78,79.78,0,0,0,1.89-10.76c0-5.09-3.08-8.05-8.52-8.05s-11.47,3.79-15,7.81c-4.26,4.14-5.21,7.81-6.51,13.84l-6.86,32.06H903.45Zm155.32,61.16h-12.66l-12.07-84.47h11.48l8.63,73.47h.24l40.11-73.47h11.94Zm50.39-61.16h10.06l-12.78,61.16H1109.4Zm12.42-11h-10.17l2.6-12.31h10.17Zm43.65,29c.47-7-5.68-10.53-12.66-10.53-6.15,0-13,1.66-13,7.81,0,5.68,8,7.93,16.09,11.24s16.21,7.57,16.21,17.15c0,13.61-13.14,18.93-25,18.93-14,0-24.84-5.09-24.72-20.7h10.06c-.48,9.11,7.21,11.83,15.61,11.83,6.51,0,14-2.37,14-9.35,0-5.91-8-8.28-16.09-11.59s-16.21-7.34-16.21-16.56c0-11.36,11.36-17.63,22.72-17.63s23.07,5.09,23.07,19.4Zm27.09-18h10.05l-12.77,61.16h-10.06Zm12.42-11h-10.17l2.6-12.31h10.17Zm37.85,9.58c16.33,0,25.44,9,25.44,25.32,0,20-12.42,38.68-33.84,38.68-16.09,0-25.79-10.77-25.79-25.55C1221.42,511.25,1234.2,492.8,1255.61,492.8Zm-7.33,55.13c14.67,0,22.71-16.92,22.71-29,0-9.58-5.08-17.27-16.09-17.27-15.38,0-23.42,16.8-23.42,29.46C1231.48,541.18,1237.28,547.93,1248.28,547.93Zm51.34-53.71h9.7l-1.9,9.23h.24a27.1,27.1,0,0,1,21.77-10.65c11.47,0,17,5,17,15.73a64.77,64.77,0,0,1-1.77,12l-7.45,34.9h-10.06l7.81-35.73a68.09,68.09,0,0,0,1.42-9.46c0-5.8-4.73-8.52-10.65-8.52-5.56,0-11.36,3.08-15.14,7.1-3.55,3.08-5.44,7.93-6.75,12.78l-7.09,33.83h-10.06Zm98.53,0h10.06l-12.78,61.16h-10Zm12.43-11H1400.4l2.61-12.31h10.17Zm14,11h9.7l-1.89,9.23h.24a27.1,27.1,0,0,1,21.77-10.65c11.47,0,17,5,17,15.73a64.77,64.77,0,0,1-1.77,12l-7.46,34.9H1452.1l7.81-35.73a68.09,68.09,0,0,0,1.42-9.46c0-5.8-4.74-8.52-10.65-8.52-5.56,0-11.36,3.08-15.14,7.1-3.55,3.08-5.45,7.93-6.75,12.78l-7.1,33.83h-10Zm79.62,0h12.18l-1.89,8.87h-12.19l-7.57,36c-.11,1.42-.35,2.61-.35,4,0,3.19,3,4.14,6,4.14a19.37,19.37,0,0,0,5.8-1.07l-1.78,9.23a36.28,36.28,0,0,1-7.09.71c-7.46,0-13.73-2.13-13.73-9.94a26.16,26.16,0,0,1,.59-5.08l8-38h-10.29l1.89-8.87h10.29l3.79-18.1h10Zm47.31-1.42c16.33,0,25.44,9,25.44,25.32,0,20-12.42,38.68-33.84,38.68-16.08,0-25.79-10.77-25.79-25.55C1517.27,511.25,1530.05,492.8,1551.46,492.8Zm-7.33,55.13c14.67,0,22.71-16.92,22.71-29,0-9.58-5.08-17.27-16.09-17.27-15.37,0-23.42,16.8-23.42,29.46C1527.33,541.18,1533.13,547.93,1544.13,547.93Zm90.61-77h32.53c14.32,0,27.81,4.85,27.81,21.53,0,11.24-7.81,21.06-19,22.72v.23c7.33,2.25,9.46,9.82,8.64,18.34-.48,7.69-3.32,14.91.11,21.65h-11.71c-1.06-3.08-1.42-9.46.24-18.1,3.55-20.11-7.81-18-12.66-18h-25l-7.57,36.08h-11.24Zm3,38.92H1663c17.74,0,20.82-10.64,20.82-16.68,0-10.52-8.17-12.77-16.57-12.77H1644Zm71,18a39.62,39.62,0,0,0-.36,5.32c0,9.46,7.69,14.79,15.85,14.79,8.76,0,14.79-4.14,17.63-11.71h10.06c-3.2,13.48-14.32,20.58-27.69,20.58-20.23,0-25.91-14-25.91-24.61,0-23.42,14.67-39.39,31.47-39.39,18,0,25.91,9.82,25.91,27.09a38.76,38.76,0,0,1-1,7.93Zm36.91-8.88c.71-8.63-3.2-17.27-14.32-17.27-11.83,0-18.22,7.81-21.18,17.27Zm21.28-6.27c2-13.6,13.49-19.87,26.5-19.87,11.83,0,22.36,3.19,22.36,15.61,0,3.44-1.18,7.81-1.89,11.13l-3.9,16.68c-.48,2.48-1.66,5.91-1.66,8.75s1.3,3.79,3,3.79a10.75,10.75,0,0,0,3.19-.83l-1.54,7.45a15.51,15.51,0,0,1-6.15,1.42c-5.56,0-8.52-3.31-7.92-8.64l-.24-.23c-4.26,5.68-10.17,8.87-20.47,8.87s-18.69-4.73-18.69-17.27c0-17.75,17.39-18.93,30.88-20.11,10.65-.95,15.38-1.54,15.38-9.7,0-6.63-7-8.05-12.31-8.05-7.69,0-15.26,3.08-16.44,11Zm13.61,35.26c7.81,0,13.6-2.61,17.15-8,3.32-4.61,3.91-10,5.33-15.73h-.24c-4.38,2.6-12.3,3.19-19.64,4.14s-13.6,3.31-13.6,11.12C1769.48,545.09,1774.8,547.93,1780.48,547.93Zm58.67-77h10.06l-17.75,84.47h-10Zm21.29,23.31h10.06l-12.78,61.16h-10Zm12.43-11h-10.18l2.6-12.31h10.18Zm27.79,11h12.19l-1.89,8.87h-12.19l-7.57,36c-.12,1.42-.36,2.61-.36,4,0,3.19,3,4.14,6,4.14a19.31,19.31,0,0,0,5.79-1.07l-1.77,9.23a36.38,36.38,0,0,1-7.1.71c-7.45,0-13.72-2.13-13.72-9.94a26.16,26.16,0,0,1,.59-5.08l8-38h-10.29l1.9-8.87h10.29l3.78-18.1h10.06Zm30.4,71.57c-5,7.93-9.46,14.43-19.75,14.43a16.85,16.85,0,0,1-7-1.53l1.77-8.17a12.57,12.57,0,0,0,5.8,1.66c4.49,0,7.1-2.72,9.46-6.63l6.15-10.17-10.76-61.16h10.76l7.1,48.62h.24l25.67-48.62h11Zm31.35-23.54h13.13l-2.84,13.13h-13.13Z"/>
</svg>
